BenchNine-Light.ufo
<glyph name="comma" format="1">
  <advance width="323"/>
  <unicode hex="002C"/>
  <outline>
    <contour>
      <point x="98" y="-283" type="curve" smooth="yes"/>
      <point x="146" y="-260"/>
      <point x="206" y="-156"/>
      <point x="206" y="81" type="curve" smooth="yes"/>
      <point x="206" y="142" type="line" smooth="yes"/>
      <point x="206" y="185"/>
      <point x="194" y="215"/>
      <point x="180" y="215" type="curve" smooth="yes"/>
      <point x="104" y="215" type="line" smooth="yes"/>
      <point x="89" y="215"/>
      <point x="70" y="195"/>
      <point x="70" y="152" type="curve" smooth="yes"/>
      <point x="70" y="52" type="line" smooth="yes"/>
      <point x="70" y="14"/>
      <point x="78" y="0"/>
      <point x="91" y="0" type="curve" smooth="yes"/>
      <point x="129" y="0" type="line" smooth="yes"/>
      <point x="135" y="0"/>
      <point x="135" y="-11"/>
      <point x="135" y="-27" type="curve" smooth="yes"/>
      <point x="135" y="-59"/>
      <point x="122" y="-136"/>
      <point x="97" y="-177" type="curve" smooth="yes"/>
      <point x="81" y="-203"/>
      <point x="75" y="-202"/>
      <point x="75" y="-234" type="curve" smooth="yes"/>
      <point x="75" y="-246" type="line" smooth="yes"/>
      <point x="75" y="-275"/>
      <point x="82" y="-285"/>
      <point x="91" y="-285" type="curve" smooth="yes"/>
      <point x="93" y="-285"/>
      <point x="96" y="-284"/>
    </contour>
  </outline>
</glyph>
<glyph name="slash" format="1">
  <advance width="490"/>
  <unicode hex="002F"/>
  <outline>
    <contour>
      <point x="85" y="-205" type="curve" smooth="yes"/>
      <point x="167" y="-205" type="line" smooth="yes"/>
      <point x="174" y="-205"/>
      <point x="180" y="-191"/>
      <point x="183" y="-170" type="curve" smooth="yes"/>
      <point x="417" y="1612" type="line" smooth="yes"/>
      <point x="417" y="1620" type="line" smooth="yes"/>
      <point x="417" y="1634"/>
      <point x="413" y="1647"/>
      <point x="409" y="1647" type="curve" smooth="yes"/>
      <point x="328" y="1647" type="line" smooth="yes"/>
      <point x="322" y="1647"/>
      <point x="313" y="1633"/>
      <point x="311" y="1612" type="curve" smooth="yes"/>
      <point x="77" y="-170" type="line" smooth="yes"/>
      <point x="77" y="-173"/>
      <point x="76" y="-176"/>
      <point x="76" y="-179" type="curve" smooth="yes"/>
      <point x="76" y="-193"/>
      <point x="80" y="-205"/>
    </contour>
  </outline>
</glyph>
<glyph name="one" format="1">
  <advance width="450"/>
  <unicode hex="0031"/>
  <outline>
    <contour>
      <point x="223" y="0" type="curve" smooth="yes"/>
      <point x="290" y="0" type="line" smooth="yes"/>
      <point x="304" y="0"/>
      <point x="313" y="24"/>
      <point x="313" y="67" type="curve" smooth="yes"/>
      <point x="313" y="1399" type="line" smooth="yes"/>
      <point x="313" y="1429"/>
      <point x="307" y="1437"/>
      <point x="295" y="1437" type="curve" smooth="yes"/>
      <point x="290" y="1437"/>
      <point x="284" y="1436"/>
      <point x="277" y="1434" type="curve" smooth="yes"/>
      <point x="94" y="1383" type="line" smooth="yes"/>
      <point x="81" y="1379"/>
      <point x="72" y="1374"/>
      <point x="72" y="1356" type="curve" smooth="yes"/>
      <point x="72" y="1302" type="line" smooth="yes"/>
      <point x="72" y="1273"/>
      <point x="80" y="1269"/>
      <point x="94" y="1273" type="curve" smooth="yes"/>
      <point x="187" y="1297" type="line" smooth="yes"/>
      <point x="195" y="1299"/>
      <point x="201" y="1294"/>
      <point x="201" y="1274" type="curve" smooth="yes"/>
      <point x="201" y="67" type="line" smooth="yes"/>
      <point x="201" y="24"/>
      <point x="209" y="0"/>
    </contour>
  </outline>
</glyph>
<glyph name="greater" format="1">
  <advance width="672"/>
  <unicode hex="003E"/>
  <outline>
    <contour>
      <point x="116" y="115" type="curve" smooth="yes"/>
      <point x="122" y="115"/>
      <point x="128" y="118"/>
      <point x="134" y="126" type="curve" smooth="yes"/>
      <point x="413" y="543" type="line"/>
      <point x="440" y="581"/>
      <point x="449" y="591"/>
      <point x="449" y="632" type="curve" smooth="yes"/>
      <point x="449" y="651" type="line" smooth="yes"/>
      <point x="449" y="693"/>
      <point x="441" y="707"/>
      <point x="414" y="743" type="curve" smooth="yes"/>
      <point x="133" y="1126" type="line" smooth="yes"/>
      <point x="126" y="1134"/>
      <point x="120" y="1142"/>
      <point x="116" y="1142" type="curve" smooth="yes"/>
      <point x="105" y="1142"/>
      <point x="99" y="1127"/>
      <point x="99" y="1103" type="curve" smooth="yes"/>
      <point x="99" y="1064" type="line" smooth="yes"/>
      <point x="99" y="1020"/>
      <point x="111" y="1010"/>
      <point x="131" y="985" type="curve"/>
      <point x="364" y="659" type="line" smooth="yes"/>
      <point x="368" y="655"/>
      <point x="370" y="649"/>
      <point x="370" y="645" type="curve" smooth="yes"/>
      <point x="370" y="640"/>
      <point x="368" y="634"/>
      <point x="365" y="630" type="curve" smooth="yes"/>
      <point x="130" y="272" type="line"/>
      <point x="111" y="246"/>
      <point x="99" y="229"/>
      <point x="99" y="185" type="curve" smooth="yes"/>
      <point x="99" y="157" type="line" smooth="yes"/>
      <point x="99" y="130"/>
      <point x="105" y="115"/>
    </contour>
  </outline>
</glyph>
<glyph name="C" format="1">
  <advance width="677"/>
  <unicode hex="0043"/>
  <outline>
    <contour>
      <point x="451" y="-14" type="curve" smooth="yes"/>
      <point x="489" y="-14"/>
      <point x="547" y="-8"/>
      <point x="588" y="7" type="curve" smooth="yes"/>
      <point x="592" y="8"/>
      <point x="596" y="15"/>
      <point x="596" y="19" type="curve" smooth="yes"/>
      <point x="596" y="88" type="line" smooth="yes"/>
      <point x="596" y="92"/>
      <point x="592" y="101"/>
      <point x="588" y="100" type="curve" smooth="yes"/>
      <point x="555" y="89"/>
      <point x="500" y="80"/>
      <point x="460" y="80" type="curve" smooth="yes"/>
      <point x="314" y="80"/>
      <point x="204" y="147"/>
      <point x="204" y="721" type="curve" smooth="yes"/>
      <point x="204" y="1290"/>
      <point x="336" y="1358"/>
      <point x="478" y="1358" type="curve" smooth="yes"/>
      <point x="547" y="1358"/>
      <point x="604" y="1335"/>
      <point x="607" y="1335" type="curve" smooth="yes"/>
      <point x="611" y="1335"/>
      <point x="614" y="1336"/>
      <point x="614" y="1345" type="curve" smooth="yes"/>
      <point x="614" y="1411" type="line" smooth="yes"/>
      <point x="614" y="1422"/>
      <point x="606" y="1425"/>
      <point x="602" y="1427" type="curve" smooth="yes"/>
      <point x="574" y="1440"/>
      <point x="521" y="1452"/>
      <point x="461" y="1452" type="curve" smooth="yes"/>
      <point x="277" y="1452"/>
      <point x="89" y="1383"/>
      <point x="89" y="721" type="curve" smooth="yes"/>
      <point x="89" y="29"/>
      <point x="278" y="-14"/>
    </contour>
  </outline>
</glyph>
<glyph name="G" format="1">
  <advance width="856"/>
  <unicode hex="0047"/>
  <outline>
    <contour>
      <point x="749" y="-15" type="curve" smooth="yes"/>
      <point x="764" y="-15"/>
      <point x="775" y="-3"/>
      <point x="775" y="40" type="curve" smooth="yes"/>
      <point x="775" y="687" type="line" smooth="yes"/>
      <point x="775" y="730"/>
      <point x="764" y="730"/>
      <point x="749" y="730" type="curve" smooth="yes"/>
      <point x="483" y="730" type="line" smooth="yes"/>
      <point x="468" y="730"/>
      <point x="454" y="728"/>
      <point x="454" y="694" type="curve" smooth="yes"/>
      <point x="454" y="661" type="line" smooth="yes"/>
      <point x="454" y="627"/>
      <point x="469" y="626"/>
      <point x="485" y="626" type="curve" smooth="yes"/>
      <point x="660" y="626" type="line" smooth="yes"/>
      <point x="665" y="626"/>
      <point x="668" y="616"/>
      <point x="668" y="557" type="curve" smooth="yes"/>
      <point x="668" y="296"/>
      <point x="634" y="80"/>
      <point x="473" y="80" type="curve" smooth="yes"/>
      <point x="340" y="80"/>
      <point x="205" y="157"/>
      <point x="205" y="721" type="curve" smooth="yes"/>
      <point x="205" y="1313"/>
      <point x="368" y="1358"/>
      <point x="529" y="1358" type="curve" smooth="yes"/>
      <point x="605" y="1358"/>
      <point x="681" y="1332"/>
      <point x="683" y="1332" type="curve" smooth="yes"/>
      <point x="687" y="1332"/>
      <point x="691" y="1333"/>
      <point x="691" y="1342" type="curve" smooth="yes"/>
      <point x="691" y="1408" type="line" smooth="yes"/>
      <point x="691" y="1419"/>
      <point x="682" y="1422"/>
      <point x="678" y="1425" type="curve"/>
      <point x="647" y="1436"/>
      <point x="591" y="1452"/>
      <point x="518" y="1452" type="curve" smooth="yes"/>
      <point x="314" y="1452"/>
      <point x="91" y="1408"/>
      <point x="91" y="721" type="curve" smooth="yes"/>
      <point x="91" y="63"/>
      <point x="286" y="-14"/>
      <point x="465" y="-14" type="curve" smooth="yes"/>
      <point x="583" y="-14"/>
      <point x="666" y="77"/>
      <point x="692" y="227" type="curve" smooth="yes"/>
      <point x="693" y="233"/>
      <point x="695" y="234"/>
      <point x="697" y="234" type="curve" smooth="yes"/>
      <point x="698" y="234"/>
      <point x="700" y="231"/>
      <point x="700" y="226" type="curve" smooth="yes"/>
      <point x="700" y="184"/>
      <point x="712" y="63"/>
      <point x="714" y="39" type="curve"/>
      <point x="720" y="-7"/>
      <point x="734" y="-15"/>
    </contour>
  </outline>
</glyph>
<glyph name="K" format="1">
  <advance width="708"/>
  <unicode hex="004B"/>
  <outline>
    <contour>
      <point x="131" y="0" type="curve" smooth="yes"/>
      <point x="194" y="0" type="line" smooth="yes"/>
      <point x="211" y="0"/>
      <point x="221" y="15"/>
      <point x="221" y="58" type="curve" smooth="yes"/>
      <point x="221" y="708" type="line"/>
      <point x="564" y="57" type="line" smooth="yes"/>
      <point x="588" y="11"/>
      <point x="599" y="0"/>
      <point x="615" y="0" type="curve" smooth="yes"/>
      <point x="681" y="0" type="line" smooth="yes"/>
      <point x="688" y="0"/>
      <point x="693" y="6"/>
      <point x="693" y="17" type="curve" smooth="yes"/>
      <point x="693" y="28"/>
      <point x="688" y="45"/>
      <point x="676" y="67" type="curve" smooth="yes"/>
      <point x="343" y="719" type="line" smooth="yes"/>
      <point x="339" y="726"/>
      <point x="339" y="731"/>
      <point x="339" y="736" type="curve" smooth="yes"/>
      <point x="339" y="745"/>
      <point x="342" y="751"/>
      <point x="343" y="755" type="curve" smooth="yes"/>
      <point x="657" y="1380" type="line" smooth="yes"/>
      <point x="665" y="1396"/>
      <point x="669" y="1410"/>
      <point x="669" y="1421" type="curve" smooth="yes"/>
      <point x="669" y="1431"/>
      <point x="665" y="1438"/>
      <point x="656" y="1438" type="curve" smooth="yes"/>
      <point x="575" y="1438" type="line" smooth="yes"/>
      <point x="558" y="1438"/>
      <point x="547" y="1413"/>
      <point x="532" y="1379" type="curve"/>
      <point x="220" y="743" type="line"/>
      <point x="220" y="1375" type="line" smooth="yes"/>
      <point x="220" y="1418"/>
      <point x="211" y="1438"/>
      <point x="194" y="1438" type="curve" smooth="yes"/>
      <point x="131" y="1438" type="line" smooth="yes"/>
      <point x="116" y="1438"/>
      <point x="108" y="1418"/>
      <point x="108" y="1375" type="curve" smooth="yes"/>
      <point x="108" y="63" type="line" smooth="yes"/>
      <point x="108" y="20"/>
      <point x="116" y="0"/>
    </contour>
  </outline>
</glyph>
<glyph name="P" format="1">
  <advance width="796"/>
  <unicode hex="0050"/>
  <outline>
    <contour>
      <point x="131" y="0" type="curve" smooth="yes"/>
      <point x="197" y="0" type="line" smooth="yes"/>
      <point x="212" y="0"/>
      <point x="220" y="8"/>
      <point x="220" y="45" type="curve" smooth="yes"/>
      <point x="220" y="526" type="line" smooth="yes"/>
      <point x="220" y="537"/>
      <point x="223" y="540"/>
      <point x="228" y="540" type="curve" smooth="yes"/>
      <point x="396" y="540" type="line" smooth="yes"/>
      <point x="576" y="540"/>
      <point x="736" y="570"/>
      <point x="736" y="985" type="curve" smooth="yes"/>
      <point x="736" y="1421"/>
      <point x="551" y="1438"/>
      <point x="364" y="1438" type="curve" smooth="yes"/>
      <point x="131" y="1438" type="line" smooth="yes"/>
      <point x="116" y="1438"/>
      <point x="108" y="1435"/>
      <point x="108" y="1392" type="curve" smooth="yes"/>
      <point x="108" y="45" type="line" smooth="yes"/>
      <point x="108" y="7"/>
      <point x="116" y="0"/>
    </contour>
    <contour>
      <point x="227" y="631" type="line" smooth="yes"/>
      <point x="222" y="631"/>
      <point x="220" y="635"/>
      <point x="220" y="643" type="curve" smooth="yes"/>
      <point x="220" y="1335" type="line" smooth="yes"/>
      <point x="220" y="1344"/>
      <point x="223" y="1348"/>
      <point x="228" y="1348" type="curve" smooth="yes"/>
      <point x="360" y="1348" type="line" smooth="yes"/>
      <point x="511" y="1348"/>
      <point x="622" y="1335"/>
      <point x="622" y="985" type="curve" smooth="yes"/>
      <point x="622" y="664"/>
      <point x="546" y="631"/>
      <point x="388" y="631" type="curve" smooth="yes"/>
    </contour>
  </outline>
</glyph>
<glyph name="W" format="1">
  <advance width="1152"/>
  <unicode hex="0057"/>
  <outline>
    <contour>
      <point x="287" y="0" type="curve"/>
      <point x="345" y="0" type="line"/>
      <point x="359" y="3"/>
      <point x="367" y="27"/>
      <point x="374" y="68" type="curve" smooth="yes"/>
      <point x="571" y="1225" type="line"/>
      <point x="780" y="68" type="line" smooth="yes"/>
      <point x="788" y="26"/>
      <point x="801" y="2"/>
      <point x="818" y="0" type="curve"/>
      <point x="882" y="0" type="line"/>
      <point x="896" y="2"/>
      <point x="908" y="26"/>
      <point x="914" y="68" type="curve" smooth="yes"/>
      <point x="1093" y="1370" type="line" smooth="yes"/>
      <point x="1095" y="1384"/>
      <point x="1097" y="1396"/>
      <point x="1097" y="1406" type="curve" smooth="yes"/>
      <point x="1097" y="1426"/>
      <point x="1092" y="1438"/>
      <point x="1082" y="1438" type="curve" smooth="yes"/>
      <point x="1025" y="1438" type="line" smooth="yes"/>
      <point x="1010" y="1438"/>
      <point x="997" y="1413"/>
      <point x="991" y="1370" type="curve" smooth="yes"/>
      <point x="848" y="259" type="line"/>
      <point x="647" y="1361" type="line" smooth="yes"/>
      <point x="639" y="1404"/>
      <point x="625" y="1417"/>
      <point x="609" y="1418" type="curve"/>
      <point x="542" y="1418" type="line" smooth="yes"/>
      <point x="527" y="1418"/>
      <point x="512" y="1404"/>
      <point x="504" y="1362" type="curve" smooth="yes"/>
      <point x="323" y="290" type="line"/>
      <point x="173" y="1370" type="line"/>
      <point x="166" y="1413"/>
      <point x="152" y="1438"/>
      <point x="137" y="1438" type="curve" smooth="yes"/>
      <point x="73" y="1438" type="line" smooth="yes"/>
      <point x="64" y="1438"/>
      <point x="58" y="1426"/>
      <point x="58" y="1405" type="curve" smooth="yes"/>
      <point x="58" y="1395"/>
      <point x="59" y="1383"/>
      <point x="62" y="1370" type="curve" smooth="yes"/>
      <point x="253" y="68" type="line" smooth="yes"/>
      <point x="260" y="26"/>
      <point x="273" y="2"/>
    </contour>
  </outline>
</glyph>
<glyph name="bracketleft" format="1">
  <advance width="479"/>
  <unicode hex="005B"/>
  <outline>
    <contour>
      <point x="134" y="-78" type="curve" smooth="yes"/>
      <point x="365" y="-78" type="line" smooth="yes"/>
      <point x="379" y="-78"/>
      <point x="388" y="-70"/>
      <point x="388" y="-27" type="curve" smooth="yes"/>
      <point x="388" y="5" type="line" smooth="yes"/>
      <point x="388" y="48"/>
      <point x="379" y="62"/>
      <point x="365" y="62" type="curve" smooth="yes"/>
      <point x="232" y="62" type="line" smooth="yes"/>
      <point x="225" y="62"/>
      <point x="222" y="71"/>
      <point x="222" y="91" type="curve" smooth="yes"/>
      <point x="222" y="1323" type="line" smooth="yes"/>
      <point x="222" y="1343"/>
      <point x="225" y="1352"/>
      <point x="232" y="1352" type="curve" smooth="yes"/>
      <point x="365" y="1352" type="line" smooth="yes"/>
      <point x="379" y="1352"/>
      <point x="388" y="1364"/>
      <point x="388" y="1407" type="curve" smooth="yes"/>
      <point x="388" y="1446" type="line" smooth="yes"/>
      <point x="388" y="1489"/>
      <point x="379" y="1501"/>
      <point x="365" y="1501" type="curve" smooth="yes"/>
      <point x="134" y="1501" type="line" smooth="yes"/>
      <point x="118" y="1501"/>
      <point x="107" y="1473"/>
      <point x="107" y="1430" type="curve" smooth="yes"/>
      <point x="107" y="-11" type="line" smooth="yes"/>
      <point x="107" y="-54"/>
      <point x="118" y="-78"/>
    </contour>
  </outline>
</glyph>
<glyph name="underscore" format="1">
  <advance width="666"/>
  <unicode hex="005F"/>
  <outline>
    <contour>
      <point x="63" y="-39" type="curve" smooth="yes"/>
      <point x="605" y="-39" type="line" smooth="yes"/>
      <point x="624" y="-39"/>
      <point x="637" y="-35"/>
      <point x="637" y="-5" type="curve" smooth="yes"/>
      <point x="637" y="16" type="line" smooth="yes"/>
      <point x="637" y="44"/>
      <point x="624" y="48"/>
      <point x="605" y="48" type="curve" smooth="yes"/>
      <point x="63" y="48" type="line" smooth="yes"/>
      <point x="44" y="48"/>
      <point x="32" y="44"/>
      <point x="32" y="14" type="curve" smooth="yes"/>
      <point x="32" y="-6" type="line" smooth="yes"/>
      <point x="32" y="-35"/>
      <point x="44" y="-39"/>
    </contour>
  </outline>
</glyph>
<glyph name="c" format="1">
  <advance width="528"/>
  <unicode hex="0063"/>
  <outline>
    <contour>
      <point x="350" y="-12" type="curve" smooth="yes"/>
      <point x="390" y="-12"/>
      <point x="433" y="-3"/>
      <point x="465" y="9" type="curve" smooth="yes"/>
      <point x="466" y="10"/>
      <point x="475" y="20"/>
      <point x="475" y="23" type="curve" smooth="yes"/>
      <point x="475" y="81" type="line" smooth="yes"/>
      <point x="475" y="83"/>
      <point x="466" y="94"/>
      <point x="465" y="94" type="curve" smooth="yes"/>
      <point x="433" y="83"/>
      <point x="400" y="75"/>
      <point x="370" y="75" type="curve" smooth="yes"/>
      <point x="276" y="75"/>
      <point x="188" y="118"/>
      <point x="188" y="507" type="curve" smooth="yes"/>
      <point x="188" y="910"/>
      <point x="286" y="932"/>
      <point x="368" y="932" type="curve" smooth="yes"/>
      <point x="401" y="932"/>
      <point x="432" y="924"/>
      <point x="465" y="914" type="curve" smooth="yes"/>
      <point x="466" y="913"/>
      <point x="473" y="923"/>
      <point x="473" y="926" type="curve" smooth="yes"/>
      <point x="473" y="986" type="line" smooth="yes"/>
      <point x="473" y="988"/>
      <point x="466" y="998"/>
      <point x="465" y="998" type="curve" smooth="yes"/>
      <point x="429" y="1012"/>
      <point x="380" y="1019"/>
      <point x="348" y="1019" type="curve" smooth="yes"/>
      <point x="226" y="1019"/>
      <point x="80" y="970"/>
      <point x="80" y="507" type="curve" smooth="yes"/>
      <point x="80" y="42"/>
      <point x="228" y="-12"/>
    </contour>
  </outline>
</glyph>
<glyph name="d" format="1">
  <advance width="716"/>
  <unicode hex="0064"/>
  <outline>
    <contour>
      <point x="539" y="224" type="curve"/>
      <point x="548" y="196"/>
      <point x="551" y="0"/>
      <point x="586" y="0" type="curve" smooth="yes"/>
      <point x="598" y="0" type="line" smooth="yes"/>
      <point x="613" y="0"/>
      <point x="618" y="24"/>
      <point x="618" y="67" type="curve" smooth="yes"/>
      <point x="618" y="1370" type="line" smooth="yes"/>
      <point x="618" y="1413"/>
      <point x="608" y="1435"/>
      <point x="594" y="1435" type="curve" smooth="yes"/>
      <point x="537" y="1435" type="line" smooth="yes"/>
      <point x="521" y="1435"/>
      <point x="512" y="1413"/>
      <point x="512" y="1370" type="curve" smooth="yes"/>
      <point x="512" y="843" type="line" smooth="yes"/>
      <point x="512" y="841"/>
      <point x="512" y="830"/>
      <point x="511" y="830" type="curve" smooth="yes"/>
      <point x="510" y="834"/>
      <point x="507" y="839"/>
      <point x="506" y="842" type="curve" smooth="yes"/>
      <point x="465" y="962"/>
      <point x="401" y="1019"/>
      <point x="327" y="1019" type="curve" smooth="yes"/>
      <point x="196" y="1019"/>
      <point x="78" y="948"/>
      <point x="78" y="504" type="curve" smooth="yes"/>
      <point x="78" y="51"/>
      <point x="212" y="-12"/>
      <point x="328" y="-12" type="curve" smooth="yes"/>
      <point x="430" y="-12"/>
      <point x="497" y="55"/>
    </contour>
    <contour>
      <point x="512" y="506" type="curve" smooth="yes"/>
      <point x="512" y="242"/>
      <point x="443" y="73"/>
      <point x="345" y="73" type="curve" smooth="yes"/>
      <point x="249" y="73"/>
      <point x="186" y="162"/>
      <point x="186" y="507" type="curve" smooth="yes"/>
      <point x="186" y="864"/>
      <point x="258" y="934"/>
      <point x="346" y="934" type="curve" smooth="yes"/>
      <point x="438" y="934"/>
      <point x="512" y="783"/>
    </contour>
  </outline>
</glyph>
<glyph name="e" format="1">
  <advance width="662"/>
  <unicode hex="0065"/>
  <outline>
    <contour>
      <point x="361" y="-12" type="curve" smooth="yes"/>
      <point x="515" y="-12"/>
      <point x="585" y="115"/>
      <point x="585" y="252" type="curve" smooth="yes"/>
      <point x="585" y="258"/>
      <point x="584" y="289"/>
      <point x="584" y="291" type="curve" smooth="yes"/>
      <point x="583" y="301"/>
      <point x="578" y="304"/>
      <point x="571" y="304" type="curve" smooth="yes"/>
      <point x="519" y="304" type="line" smooth="yes"/>
      <point x="515" y="304"/>
      <point x="512" y="294"/>
      <point x="510" y="285" type="curve"/>
      <point x="504" y="207"/>
      <point x="488" y="73"/>
      <point x="367" y="73" type="curve" smooth="yes"/>
      <point x="228" y="73"/>
      <point x="189" y="293"/>
      <point x="188" y="466" type="curve" smooth="yes"/>
      <point x="188" y="475"/>
      <point x="191" y="481"/>
      <point x="194" y="481" type="curve" smooth="yes"/>
      <point x="556" y="481" type="line" smooth="yes"/>
      <point x="590" y="481"/>
      <point x="594" y="524"/>
      <point x="594" y="556" type="curve" smooth="yes"/>
      <point x="594" y="893"/>
      <point x="506" y="1019"/>
      <point x="352" y="1019" type="curve" smooth="yes"/>
      <point x="224" y="1019"/>
      <point x="80" y="938"/>
      <point x="80" y="504" type="curve" smooth="yes"/>
      <point x="80" y="92"/>
      <point x="215" y="-12"/>
    </contour>
    <contour>
      <point x="192" y="549" type="line" smooth="yes"/>
      <point x="189" y="549"/>
      <point x="189" y="602"/>
      <point x="189" y="608" type="curve" smooth="yes"/>
      <point x="207" y="877"/>
      <point x="276" y="934"/>
      <point x="350" y="934" type="curve" smooth="yes"/>
      <point x="458" y="934"/>
      <point x="495" y="818"/>
      <point x="505" y="558" type="curve" smooth="yes"/>
      <point x="505" y="556"/>
      <point x="505" y="549"/>
      <point x="504" y="549" type="curve" smooth="yes"/>
    </contour>
  </outline>
</glyph>
<glyph name="g" format="1">
  <advance width="634"/>
  <unicode hex="0067"/>
  <outline>
    <contour>
      <point x="320" y="-292" type="curve" smooth="yes"/>
      <point x="492" y="-292"/>
      <point x="608" y="-221"/>
      <point x="608" y="-26" type="curve" smooth="yes"/>
      <point x="608" y="93"/>
      <point x="552" y="173"/>
      <point x="381" y="173" type="curve" smooth="yes"/>
      <point x="263" y="173" type="line" smooth="yes"/>
      <point x="194" y="173"/>
      <point x="162" y="212"/>
      <point x="162" y="256" type="curve" smooth="yes"/>
      <point x="162" y="316"/>
      <point x="191" y="354"/>
      <point x="218" y="379" type="curve"/>
      <point x="248" y="361"/>
      <point x="291" y="349"/>
      <point x="336" y="349" type="curve" smooth="yes"/>
      <point x="515" y="349"/>
      <point x="565" y="480"/>
      <point x="565" y="677" type="curve" smooth="yes"/>
      <point x="565" y="808"/>
      <point x="517" y="915"/>
      <point x="455" y="963" type="curve" smooth="yes"/>
      <point x="445" y="970"/>
      <point x="440" y="978"/>
      <point x="444" y="996" type="curve" smooth="yes"/>
      <point x="511" y="1273" type="line" smooth="yes"/>
      <point x="516" y="1295"/>
      <point x="509" y="1314"/>
      <point x="499" y="1314" type="curve" smooth="yes"/>
      <point x="450" y="1314" type="line" smooth="yes"/>
      <point x="433" y="1314"/>
      <point x="423" y="1311"/>
      <point x="420" y="1271" type="curve" smooth="yes"/>
      <point x="396" y="1025" type="line" smooth="yes"/>
      <point x="394" y="1009"/>
      <point x="390" y="1006"/>
      <point x="381" y="1008" type="curve" smooth="yes"/>
      <point x="364" y="1012"/>
      <point x="343" y="1019"/>
      <point x="318" y="1019" type="curve" smooth="yes"/>
      <point x="133" y="1019"/>
      <point x="72" y="865"/>
      <point x="72" y="677" type="curve" smooth="yes"/>
      <point x="72" y="581"/>
      <point x="98" y="498"/>
      <point x="145" y="436" type="curve" smooth="yes"/>
      <point x="148" y="432"/>
      <point x="150" y="427"/>
      <point x="150" y="421" type="curve" smooth="yes"/>
      <point x="150" y="416"/>
      <point x="148" y="411"/>
      <point x="144" y="405" type="curve" smooth="yes"/>
      <point x="110" y="361"/>
      <point x="80" y="330"/>
      <point x="80" y="233" type="curve" smooth="yes"/>
      <point x="80" y="184"/>
      <point x="104" y="151"/>
      <point x="155" y="127" type="curve" smooth="yes"/>
      <point x="161" y="124"/>
      <point x="164" y="121"/>
      <point x="164" y="116" type="curve" smooth="yes"/>
      <point x="164" y="111"/>
      <point x="162" y="106"/>
      <point x="160" y="102" type="curve" smooth="yes"/>
      <point x="115" y="27"/>
      <point x="83" y="-64"/>
      <point x="83" y="-123" type="curve" smooth="yes"/>
      <point x="83" y="-222"/>
      <point x="154" y="-292"/>
    </contour>
    <contour>
      <point x="315" y="-218" type="curve" smooth="yes"/>
      <point x="205" y="-218"/>
      <point x="180" y="-165"/>
      <point x="180" y="-100" type="curve" smooth="yes"/>
      <point x="180" y="-1"/>
      <point x="234" y="101"/>
      <point x="263" y="101" type="curve" smooth="yes"/>
      <point x="379" y="101" type="line" smooth="yes"/>
      <point x="459" y="101"/>
      <point x="521" y="70"/>
      <point x="521" y="-31" type="curve" smooth="yes"/>
      <point x="521" y="-155"/>
      <point x="466" y="-218"/>
    </contour>
    <contour>
      <point x="333" y="424" type="curve" smooth="yes"/>
      <point x="215" y="424"/>
      <point x="175" y="528"/>
      <point x="175" y="682" type="curve" smooth="yes"/>
      <point x="175" y="803"/>
      <point x="195" y="942"/>
      <point x="312" y="942" type="curve" smooth="yes"/>
      <point x="432" y="942"/>
      <point x="467" y="803"/>
      <point x="467" y="671" type="curve" smooth="yes"/>
      <point x="467" y="536"/>
      <point x="455" y="424"/>
    </contour>
  </outline>
</glyph>
<glyph name="p" format="1">
  <advance width="718"/>
  <unicode hex="0070"/>
  <outline>
    <contour>
      <point x="121" y="-401" type="curve" smooth="yes"/>
      <point x="181" y="-401" type="line" smooth="yes"/>
      <point x="195" y="-401"/>
      <point x="204" y="-380"/>
      <point x="204" y="-337" type="curve" smooth="yes"/>
      <point x="204" y="162" type="line" smooth="yes"/>
      <point x="204" y="169"/>
      <point x="205" y="172"/>
      <point x="206" y="172" type="curve" smooth="yes"/>
      <point x="207" y="172"/>
      <point x="209" y="170"/>
      <point x="210" y="166" type="curve" smooth="yes"/>
      <point x="249" y="47"/>
      <point x="315" y="-12"/>
      <point x="387" y="-12" type="curve" smooth="yes"/>
      <point x="520" y="-12"/>
      <point x="638" y="127"/>
      <point x="638" y="508" type="curve" smooth="yes"/>
      <point x="638" y="869"/>
      <point x="516" y="1018"/>
      <point x="390" y="1018" type="curve" smooth="yes"/>
      <point x="314" y="1018"/>
      <point x="226" y="949"/>
      <point x="184" y="787" type="curve" smooth="yes"/>
      <point x="182" y="782"/>
      <point x="181" y="780"/>
      <point x="179" y="780" type="curve" smooth="yes"/>
      <point x="178" y="780"/>
      <point x="175" y="785"/>
      <point x="174" y="791" type="curve"/>
      <point x="174" y="817"/>
      <point x="164" y="900"/>
      <point x="160" y="930" type="curve" smooth="yes"/>
      <point x="152" y="996"/>
      <point x="140" y="1010"/>
      <point x="129" y="1010" type="curve" smooth="yes"/>
      <point x="118" y="1010" type="line" smooth="yes"/>
      <point x="103" y="1010"/>
      <point x="98" y="992"/>
      <point x="98" y="949" type="curve" smooth="yes"/>
      <point x="98" y="-337" type="line" smooth="yes"/>
      <point x="98" y="-380"/>
      <point x="106" y="-401"/>
    </contour>
    <contour>
      <point x="369" y="73" type="curve" smooth="yes"/>
      <point x="281" y="73"/>
      <point x="204" y="234"/>
      <point x="204" y="505" type="curve" smooth="yes"/>
      <point x="204" y="756"/>
      <point x="276" y="934"/>
      <point x="369" y="934" type="curve" smooth="yes"/>
      <point x="459" y="934"/>
      <point x="531" y="781"/>
      <point x="531" y="505" type="curve" smooth="yes"/>
      <point x="531" y="169"/>
      <point x="454" y="73"/>
    </contour>
  </outline>
</glyph>
<glyph name="r" format="1">
  <advance width="429"/>
  <unicode hex="0072"/>
  <outline>
    <contour>
      <point x="121" y="0" type="curve" smooth="yes"/>
      <point x="179" y="0" type="line" smooth="yes"/>
      <point x="193" y="0"/>
      <point x="203" y="15"/>
      <point x="203" y="58" type="curve" smooth="yes"/>
      <point x="203" y="556" type="line" smooth="yes"/>
      <point x="203" y="683"/>
      <point x="256" y="885"/>
      <point x="327" y="892" type="curve" smooth="yes"/>
      <point x="330" y="893"/>
      <point x="359" y="894"/>
      <point x="359" y="894" type="curve" smooth="yes"/>
      <point x="375" y="894"/>
      <point x="382" y="900"/>
      <point x="382" y="934" type="curve" smooth="yes"/>
      <point x="382" y="970" type="line" smooth="yes"/>
      <point x="382" y="1004"/>
      <point x="374" y="1012"/>
      <point x="352" y="1012" type="curve" smooth="yes"/>
      <point x="336" y="1012" type="line" smooth="yes"/>
      <point x="275" y="1012"/>
      <point x="219" y="918"/>
      <point x="188" y="801" type="curve" smooth="yes"/>
      <point x="186" y="794"/>
      <point x="184" y="781"/>
      <point x="182" y="781" type="curve" smooth="yes"/>
      <point x="178" y="781"/>
      <point x="177" y="792"/>
      <point x="175" y="801" type="curve"/>
      <point x="162" y="942" type="line"/>
      <point x="156" y="990"/>
      <point x="150" y="1006"/>
      <point x="134" y="1006" type="curve" smooth="yes"/>
      <point x="118" y="1006" type="line" smooth="yes"/>
      <point x="103" y="1006"/>
      <point x="97" y="972"/>
      <point x="97" y="929" type="curve" smooth="yes"/>
      <point x="97" y="58" type="line" smooth="yes"/>
      <point x="97" y="15"/>
      <point x="107" y="0"/>
    </contour>
  </outline>
</glyph>
<glyph name="v" format="1">
  <advance width="586"/>
  <unicode hex="0076"/>
  <outline>
    <contour>
      <point x="253" y="1" type="curve" smooth="yes"/>
      <point x="324" y="1" type="line" smooth="yes"/>
      <point x="338" y="1"/>
      <point x="352" y="27"/>
      <point x="360" y="67" type="curve" smooth="yes"/>
      <point x="531" y="940" type="line" smooth="yes"/>
      <point x="534" y="956"/>
      <point x="536" y="969"/>
      <point x="536" y="979" type="curve" smooth="yes"/>
      <point x="536" y="996"/>
      <point x="532" y="1006"/>
      <point x="523" y="1006" type="curve" smooth="yes"/>
      <point x="459" y="1006" type="line" smooth="yes"/>
      <point x="445" y="1006"/>
      <point x="433" y="986"/>
      <point x="426" y="941" type="curve" smooth="yes"/>
      <point x="297" y="165" type="line" smooth="yes"/>
      <point x="296" y="159"/>
      <point x="295" y="156"/>
      <point x="294" y="156" type="curve" smooth="yes"/>
      <point x="292" y="156"/>
      <point x="291" y="159"/>
      <point x="290" y="165" type="curve" smooth="yes"/>
      <point x="164" y="941" type="line"/>
      <point x="156" y="984"/>
      <point x="148" y="1006"/>
      <point x="132" y="1006" type="curve" smooth="yes"/>
      <point x="64" y="1006" type="line" smooth="yes"/>
      <point x="55" y="1006"/>
      <point x="50" y="995"/>
      <point x="50" y="975" type="curve" smooth="yes"/>
      <point x="50" y="965"/>
      <point x="51" y="953"/>
      <point x="54" y="940" type="curve" smooth="yes"/>
      <point x="221" y="67" type="line" smooth="yes"/>
      <point x="229" y="27"/>
      <point x="240" y="1"/>
    </contour>
  </outline>
</glyph>
<glyph name="x" format="1">
  <advance width="600"/>
  <unicode hex="0078"/>
  <outline>
    <contour>
      <point x="60" y="0" type="curve" smooth="yes"/>
      <point x="114" y="0" type="line" smooth="yes"/>
      <point x="131" y="0"/>
      <point x="144" y="18"/>
      <point x="158" y="47" type="curve"/>
      <point x="177" y="92"/>
      <point x="244" y="263"/>
      <point x="289" y="378" type="curve"/>
      <point x="295" y="383"/>
      <point x="297" y="385"/>
      <point x="299" y="385" type="curve" smooth="yes"/>
      <point x="302" y="385"/>
      <point x="303" y="382"/>
      <point x="305" y="378" type="curve" smooth="yes"/>
      <point x="357" y="260"/>
      <point x="415" y="88"/>
      <point x="432" y="50" type="curve"/>
      <point x="443" y="21"/>
      <point x="461" y="0"/>
      <point x="477" y="0" type="curve" smooth="yes"/>
      <point x="543" y="0" type="line" smooth="yes"/>
      <point x="548" y="0"/>
      <point x="552" y="14"/>
      <point x="552" y="28" type="curve" smooth="yes"/>
      <point x="552" y="35"/>
      <point x="551" y="42"/>
      <point x="548" y="48" type="curve" smooth="yes"/>
      <point x="493" y="185"/>
      <point x="401" y="404"/>
      <point x="358" y="504" type="curve"/>
      <point x="357" y="510"/>
      <point x="355" y="516"/>
      <point x="355" y="520" type="curve" smooth="yes"/>
      <point x="355" y="525"/>
      <point x="357" y="528"/>
      <point x="358" y="531" type="curve" smooth="yes"/>
      <point x="413" y="661"/>
      <point x="503" y="868"/>
      <point x="539" y="960" type="curve" smooth="yes"/>
      <point x="542" y="965"/>
      <point x="543" y="973"/>
      <point x="543" y="981" type="curve" smooth="yes"/>
      <point x="543" y="994"/>
      <point x="539" y="1006"/>
      <point x="534" y="1006" type="curve" smooth="yes"/>
      <point x="478" y="1006" type="line" smooth="yes"/>
      <point x="463" y="1006"/>
      <point x="452" y="987"/>
      <point x="440" y="958" type="curve" smooth="yes"/>
      <point x="421" y="914"/>
      <point x="350" y="735"/>
      <point x="307" y="630" type="curve" smooth="yes"/>
      <point x="306" y="626"/>
      <point x="303" y="625"/>
      <point x="301" y="625" type="curve" smooth="yes"/>
      <point x="299" y="625"/>
      <point x="298" y="627"/>
      <point x="297" y="630" type="curve" smooth="yes"/>
      <point x="239" y="762"/>
      <point x="189" y="910"/>
      <point x="170" y="956" type="curve" smooth="yes"/>
      <point x="158" y="985"/>
      <point x="146" y="1006"/>
      <point x="130" y="1006" type="curve" smooth="yes"/>
      <point x="63" y="1006" type="line" smooth="yes"/>
      <point x="58" y="1006"/>
      <point x="54" y="992"/>
      <point x="54" y="978" type="curve" smooth="yes"/>
      <point x="54" y="971"/>
      <point x="56" y="963"/>
      <point x="58" y="958" type="curve" smooth="yes"/>
      <point x="77" y="905"/>
      <point x="168" y="660"/>
      <point x="234" y="508" type="curve"/>
      <point x="235" y="503"/>
      <point x="236" y="498"/>
      <point x="236" y="494" type="curve" smooth="yes"/>
      <point x="236" y="489"/>
      <point x="235" y="486"/>
      <point x="234" y="483" type="curve" smooth="yes"/>
      <point x="184" y="369"/>
      <point x="102" y="164"/>
      <point x="55" y="46" type="curve" smooth="yes"/>
      <point x="53" y="41"/>
      <point x="52" y="33"/>
      <point x="52" y="26" type="curve" smooth="yes"/>
      <point x="52" y="13"/>
      <point x="55" y="0"/>
    </contour>
  </outline>
</glyph>
<glyph name="bar" format="1">
  <advance width="294"/>
  <unicode hex="007C"/>
  <outline>
    <contour>
      <point x="135" y="-150" type="curve" smooth="yes"/>
      <point x="159" y="-150" type="line" smooth="yes"/>
      <point x="174" y="-150"/>
      <point x="186" y="-132"/>
      <point x="186" y="-89" type="curve" smooth="yes"/>
      <point x="186" y="1494" type="line" smooth="yes"/>
      <point x="186" y="1537"/>
      <point x="174" y="1555"/>
      <point x="159" y="1555" type="curve" smooth="yes"/>
      <point x="135" y="1555" type="line" smooth="yes"/>
      <point x="119" y="1555"/>
      <point x="107" y="1537"/>
      <point x="107" y="1494" type="curve" smooth="yes"/>
      <point x="107" y="-89" type="line" smooth="yes"/>
      <point x="107" y="-132"/>
      <point x="119" y="-150"/>
    </contour>
  </outline>
</glyph>
<glyph name="yen" format="1">
  <advance width="645"/>
  <unicode hex="00A5"/>
  <outline>
    <contour>
      <point x="290" y="0" type="curve" smooth="yes"/>
      <point x="358" y="0" type="line" smooth="yes"/>
      <point x="373" y="0"/>
      <point x="381" y="9"/>
      <point x="381" y="52" type="curve" smooth="yes"/>
      <point x="381" y="370" type="line"/>
      <point x="497" y="370" type="line" smooth="yes"/>
      <point x="512" y="370"/>
      <point x="519" y="376"/>
      <point x="519" y="403" type="curve" smooth="yes"/>
      <point x="519" y="433" type="line" smooth="yes"/>
      <point x="519" y="460"/>
      <point x="512" y="465"/>
      <point x="497" y="465" type="curve" smooth="yes"/>
      <point x="384" y="465" type="line"/>
      <point x="388" y="567" type="line"/>
      <point x="499" y="567" type="line" smooth="yes"/>
      <point x="514" y="567"/>
      <point x="520" y="572"/>
      <point x="520" y="599" type="curve" smooth="yes"/>
      <point x="520" y="629" type="line" smooth="yes"/>
      <point x="520" y="656"/>
      <point x="514" y="662"/>
      <point x="499" y="662" type="curve" smooth="yes"/>
      <point x="404" y="662" type="line"/>
      <point x="600" y="1380" type="line" smooth="yes"/>
      <point x="605" y="1396"/>
      <point x="605" y="1404"/>
      <point x="605" y="1414" type="curve" smooth="yes"/>
      <point x="605" y="1429"/>
      <point x="599" y="1438"/>
      <point x="586" y="1438" type="curve" smooth="yes"/>
      <point x="538" y="1438" type="line" smooth="yes"/>
      <point x="522" y="1438"/>
      <point x="506" y="1423"/>
      <point x="500" y="1396" type="curve" smooth="yes"/>
      <point x="330" y="729" type="line"/>
      <point x="325" y="729" type="line"/>
      <point x="156" y="1396" type="line" smooth="yes"/>
      <point x="148" y="1427"/>
      <point x="130" y="1438"/>
      <point x="115" y="1438" type="curve" smooth="yes"/>
      <point x="60" y="1438" type="line" smooth="yes"/>
      <point x="48" y="1438"/>
      <point x="40" y="1429"/>
      <point x="40" y="1416" type="curve" smooth="yes"/>
      <point x="40" y="1406"/>
      <point x="41" y="1398"/>
      <point x="47" y="1380" type="curve"/>
      <point x="243" y="662" type="line"/>
      <point x="141" y="662" type="line" smooth="yes"/>
      <point x="126" y="662"/>
      <point x="121" y="656"/>
      <point x="121" y="629" type="curve" smooth="yes"/>
      <point x="121" y="599" type="line" smooth="yes"/>
      <point x="121" y="572"/>
      <point x="126" y="567"/>
      <point x="141" y="567" type="curve" smooth="yes"/>
      <point x="259" y="567" type="line"/>
      <point x="263" y="465" type="line"/>
      <point x="141" y="465" type="line" smooth="yes"/>
      <point x="126" y="465"/>
      <point x="121" y="460"/>
      <point x="121" y="433" type="curve" smooth="yes"/>
      <point x="121" y="403" type="line" smooth="yes"/>
      <point x="121" y="376"/>
      <point x="126" y="370"/>
      <point x="141" y="370" type="curve" smooth="yes"/>
      <point x="267" y="370" type="line"/>
      <point x="267" y="52" type="line" smooth="yes"/>
      <point x="267" y="9"/>
      <point x="275" y="0"/>
    </contour>
  </outline>
</glyph>
<glyph name="section" format="1">
  <advance width="731"/>
  <unicode hex="00A7"/>
  <outline>
    <contour>
      <point x="368" y="-14" type="curve" smooth="yes"/>
      <point x="540" y="-14"/>
      <point x="626" y="99"/>
      <point x="626" y="262" type="curve" smooth="yes"/>
      <point x="626" y="369"/>
      <point x="586" y="436"/>
      <point x="533" y="488" type="curve"/>
      <point x="590" y="531"/>
      <point x="626" y="598"/>
      <point x="626" y="690" type="curve" smooth="yes"/>
      <point x="626" y="883"/>
      <point x="513" y="945"/>
      <point x="384" y="1003" type="curve"/>
      <point x="281" y="1051"/>
      <point x="235" y="1098"/>
      <point x="235" y="1201" type="curve" smooth="yes"/>
      <point x="235" y="1289"/>
      <point x="277" y="1368"/>
      <point x="384" y="1368" type="curve" smooth="yes"/>
      <point x="461" y="1368"/>
      <point x="499" y="1342"/>
      <point x="545" y="1299" type="curve"/>
      <point x="550" y="1296"/>
      <point x="567" y="1302"/>
      <point x="569" y="1309" type="curve"/>
      <point x="569" y="1309"/>
      <point x="589" y="1347"/>
      <point x="589" y="1349" type="curve" smooth="yes"/>
      <point x="589" y="1353"/>
      <point x="584" y="1371"/>
      <point x="581" y="1373" type="curve" smooth="yes"/>
      <point x="522" y="1428"/>
      <point x="457" y="1451"/>
      <point x="377" y="1451" type="curve" smooth="yes"/>
      <point x="252" y="1451"/>
      <point x="143" y="1366"/>
      <point x="143" y="1193" type="curve" smooth="yes"/>
      <point x="143" y="1083"/>
      <point x="185" y="1016"/>
      <point x="243" y="966" type="curve"/>
      <point x="181" y="927"/>
      <point x="143" y="862"/>
      <point x="143" y="765" type="curve" smooth="yes"/>
      <point x="143" y="583"/>
      <point x="252" y="525"/>
      <point x="372" y="470" type="curve" smooth="yes"/>
      <point x="467" y="426"/>
      <point x="535" y="373"/>
      <point x="535" y="258" type="curve" smooth="yes"/>
      <point x="535" y="157"/>
      <point x="483" y="69"/>
      <point x="373" y="69" type="curve" smooth="yes"/>
      <point x="281" y="69"/>
      <point x="221" y="107"/>
      <point x="158" y="172" type="curve"/>
      <point x="153" y="174"/>
      <point x="133" y="166"/>
      <point x="131" y="158" type="curve"/>
      <point x="131" y="158"/>
      <point x="115" y="123"/>
      <point x="115" y="121" type="curve" smooth="yes"/>
      <point x="115" y="117"/>
      <point x="117" y="95"/>
      <point x="120" y="93" type="curve" smooth="yes"/>
      <point x="191" y="19"/>
      <point x="266" y="-14"/>
    </contour>
    <contour>
      <point x="468" y="537" type="curve"/>
      <point x="457" y="541"/>
      <point x="416" y="562"/>
      <point x="384" y="575" type="curve"/>
      <point x="283" y="624"/>
      <point x="229" y="673"/>
      <point x="229" y="774" type="curve" smooth="yes"/>
      <point x="229" y="843"/>
      <point x="257" y="898"/>
      <point x="312" y="920" type="curve"/>
      <point x="331" y="911"/>
      <point x="350" y="904"/>
      <point x="372" y="898" type="curve"/>
      <point x="471" y="854"/>
      <point x="542" y="804"/>
      <point x="542" y="688" type="curve" smooth="yes"/>
      <point x="542" y="623"/>
      <point x="513" y="561"/>
    </contour>
  </outline>
</glyph>
<glyph name="dieresis" format="1">
  <advance width="273"/>
  <unicode hex="00A8"/>
  <outline>
    <contour>
      <point x="85" y="0" type="curve" smooth="yes"/>
      <point x="134" y="0" type="line" smooth="yes"/>
      <point x="149" y="0"/>
      <point x="161" y="23"/>
      <point x="161" y="57" type="curve" smooth="yes"/>
      <point x="161" y="83" type="line" smooth="yes"/>
      <point x="161" y="117"/>
      <point x="149" y="140"/>
      <point x="134" y="140" type="curve" smooth="yes"/>
      <point x="85" y="140" type="line" smooth="yes"/>
      <point x="70" y="140"/>
      <point x="58" y="117"/>
      <point x="58" y="83" type="curve" smooth="yes"/>
      <point x="58" y="57" type="line" smooth="yes"/>
      <point x="58" y="23"/>
      <point x="70" y="0"/>
    </contour>
    <contour>
      <point x="305" y="0" type="curve" smooth="yes"/>
      <point x="353" y="0" type="line" smooth="yes"/>
      <point x="368" y="0"/>
      <point x="380" y="23"/>
      <point x="380" y="57" type="curve" smooth="yes"/>
      <point x="380" y="83" type="line" smooth="yes"/>
      <point x="380" y="117"/>
      <point x="368" y="140"/>
      <point x="353" y="140" type="curve" smooth="yes"/>
      <point x="305" y="140" type="line" smooth="yes"/>
      <point x="291" y="140"/>
      <point x="280" y="117"/>
      <point x="280" y="83" type="curve" smooth="yes"/>
      <point x="280" y="57" type="line" smooth="yes"/>
      <point x="280" y="23"/>
      <point x="291" y="0"/>
    </contour>
  </outline>
</glyph>
<glyph name="cedilla" format="1">
  <advance width="339"/>
  <unicode hex="00B8"/>
  <outline>
    <contour>
      <point x="190" y="-606" type="curve" smooth="yes"/>
      <point x="282" y="-606"/>
      <point x="316" y="-537"/>
      <point x="316" y="-383" type="curve" smooth="yes"/>
      <point x="316" y="-272"/>
      <point x="260" y="-144"/>
      <point x="209" y="-144" type="curve" smooth="yes"/>
      <point x="172" y="-144" type="line" smooth="yes"/>
      <point x="166" y="-144"/>
      <point x="165" y="-151"/>
      <point x="165" y="-161" type="curve" smooth="yes"/>
      <point x="165" y="-208" type="line" smooth="yes"/>
      <point x="165" y="-219"/>
      <point x="172" y="-218"/>
      <point x="172" y="-218" type="curve"/>
      <point x="190" y="-218" type="line" smooth="yes"/>
      <point x="214" y="-218"/>
      <point x="253" y="-319"/>
      <point x="253" y="-395" type="curve" smooth="yes"/>
      <point x="253" y="-503"/>
      <point x="232" y="-543"/>
      <point x="195" y="-543" type="curve" smooth="yes"/>
      <point x="154" y="-543"/>
      <point x="135" y="-500"/>
      <point x="135" y="-448" type="curve" smooth="yes"/>
      <point x="135" y="-437"/>
      <point x="138" y="-414"/>
      <point x="138" y="-395" type="curve" smooth="yes"/>
      <point x="138" y="-377"/>
      <point x="135" y="-361"/>
      <point x="124" y="-361" type="curve" smooth="yes"/>
      <point x="93" y="-361" type="line" smooth="yes"/>
      <point x="73" y="-361"/>
      <point x="72" y="-428"/>
      <point x="72" y="-452" type="curve" smooth="yes"/>
      <point x="72" y="-560"/>
      <point x="128" y="-606"/>
    </contour>
  </outline>
</glyph>
<glyph name="ae" format="1">
  <advance width="1052"/>
  <unicode hex="00E6"/>
  <outline>
    <contour>
      <point x="276" y="-12" type="curve" smooth="yes"/>
      <point x="405" y="-12"/>
      <point x="474" y="78"/>
      <point x="508" y="228" type="curve"/>
      <point x="544" y="72"/>
      <point x="622" y="-12"/>
      <point x="723" y="-12" type="curve" smooth="yes"/>
      <point x="877" y="-12"/>
      <point x="930" y="115"/>
      <point x="930" y="252" type="curve" smooth="yes"/>
      <point x="930" y="258"/>
      <point x="930" y="289"/>
      <point x="929" y="291" type="curve"/>
      <point x="929" y="301"/>
      <point x="924" y="304"/>
      <point x="916" y="304" type="curve" smooth="yes"/>
      <point x="868" y="304" type="line" smooth="yes"/>
      <point x="864" y="304"/>
      <point x="861" y="294"/>
      <point x="860" y="285" type="curve" smooth="yes"/>
      <point x="853" y="207"/>
      <point x="850" y="73"/>
      <point x="729" y="73" type="curve" smooth="yes"/>
      <point x="590" y="73"/>
      <point x="567" y="293"/>
      <point x="566" y="466" type="curve" smooth="yes"/>
      <point x="566" y="475"/>
      <point x="569" y="481"/>
      <point x="572" y="481" type="curve" smooth="yes"/>
      <point x="901" y="481" type="line" smooth="yes"/>
      <point x="935" y="481"/>
      <point x="940" y="586"/>
      <point x="940" y="590" type="curve" smooth="yes"/>
      <point x="929" y="876"/>
      <point x="868" y="1019"/>
      <point x="714" y="1019" type="curve" smooth="yes"/>
      <point x="639" y="1019"/>
      <point x="555" y="965"/>
      <point x="525" y="828" type="curve"/>
      <point x="501" y="960"/>
      <point x="428" y="1018"/>
      <point x="325" y="1018" type="curve" smooth="yes"/>
      <point x="176" y="1018"/>
      <point x="115" y="894"/>
      <point x="97" y="820" type="curve" smooth="yes"/>
      <point x="92" y="799"/>
      <point x="90" y="781"/>
      <point x="94" y="772" type="curve" smooth="yes"/>
      <point x="97" y="764"/>
      <point x="132" y="751"/>
      <point x="148" y="748" type="curve"/>
      <point x="161" y="744"/>
      <point x="171" y="750"/>
      <point x="178" y="776" type="curve" smooth="yes"/>
      <point x="191" y="830"/>
      <point x="220" y="934"/>
      <point x="327" y="934" type="curve" smooth="yes"/>
      <point x="443" y="934"/>
      <point x="459" y="801"/>
      <point x="459" y="654" type="curve" smooth="yes"/>
      <point x="459" y="610" type="line"/>
      <point x="404" y="589"/>
      <point x="73" y="596"/>
      <point x="73" y="238" type="curve" smooth="yes"/>
      <point x="73" y="86"/>
      <point x="134" y="-12"/>
    </contour>
    <contour>
      <point x="291" y="69" type="curve" smooth="yes"/>
      <point x="199" y="69"/>
      <point x="167" y="135"/>
      <point x="166" y="244" type="curve"/>
      <point x="166" y="375"/>
      <point x="226" y="487"/>
      <point x="395" y="527" type="curve" smooth="yes"/>
      <point x="398" y="528"/>
      <point x="453" y="536"/>
      <point x="454" y="536" type="curve" smooth="yes"/>
      <point x="461" y="536"/>
      <point x="461" y="487"/>
      <point x="461" y="473" type="curve" smooth="yes"/>
      <point x="461" y="252"/>
      <point x="418" y="69"/>
    </contour>
    <contour>
      <point x="570" y="549" type="line" smooth="yes"/>
      <point x="567" y="549"/>
      <point x="567" y="602"/>
      <point x="567" y="608" type="curve" smooth="yes"/>
      <point x="577" y="845"/>
      <point x="638" y="934"/>
      <point x="712" y="934" type="curve" smooth="yes"/>
      <point x="820" y="934"/>
      <point x="846" y="793"/>
      <point x="854" y="558" type="curve" smooth="yes"/>
      <point x="854" y="556"/>
      <point x="854" y="549"/>
      <point x="853" y="549" type="curve" smooth="yes"/>
    </contour>
  </outline>
</glyph>
<glyph name="divide" format="1">
  <advance width="310"/>
  <unicode hex="00F7"/>
  <outline>
    <contour>
      <point x="122" y="149.6" type="curve" smooth="yes"/>
      <point x="198" y="149.6" type="line" smooth="yes"/>
      <point x="213" y="149.6"/>
      <point x="221" y="155.6"/>
      <point x="221" y="198.6" type="curve" smooth="yes"/>
      <point x="221" y="270.6" type="line" smooth="yes"/>
      <point x="221" y="313.6"/>
      <point x="213" y="319.6"/>
      <point x="198" y="319.6" type="curve" smooth="yes"/>
      <point x="122" y="319.6" type="line" smooth="yes"/>
      <point x="107" y="319.6"/>
      <point x="99" y="313.6"/>
      <point x="99" y="270.6" type="curve" smooth="yes"/>
      <point x="99" y="198.6" type="line" smooth="yes"/>
      <point x="99" y="155.6"/>
      <point x="107" y="149.6"/>
    </contour>
    <contour>
      <point x="122" y="697.6" type="curve" smooth="yes"/>
      <point x="198" y="697.6" type="line" smooth="yes"/>
      <point x="213" y="697.6"/>
      <point x="221" y="703.6"/>
      <point x="221" y="746.6" type="curve" smooth="yes"/>
      <point x="221" y="818.6" type="line" smooth="yes"/>
      <point x="221" y="861.6"/>
      <point x="213" y="867.6"/>
      <point x="198" y="867.6" type="curve" smooth="yes"/>
      <point x="122" y="867.6" type="line" smooth="yes"/>
      <point x="107" y="867.6"/>
      <point x="99" y="861.6"/>
      <point x="99" y="818.6" type="curve" smooth="yes"/>
      <point x="99" y="746.6" type="line" smooth="yes"/>
      <point x="99" y="703.6"/>
      <point x="107" y="697.6"/>
    </contour>
    <contour>
      <point x="493" y="473" type="curve" smooth="yes"/>
      <point x="493" y="533" type="line" smooth="yes"/>
      <point x="493" y="548"/>
      <point x="483" y="556"/>
      <point x="440" y="556" type="curve" smooth="yes"/>
      <point x="-117" y="556" type="line" smooth="yes"/>
      <point x="-160" y="556"/>
      <point x="-170" y="548"/>
      <point x="-170" y="533" type="curve" smooth="yes"/>
      <point x="-170" y="473" type="line" smooth="yes"/>
      <point x="-170" y="458"/>
      <point x="-160" y="450"/>
      <point x="-117" y="450" type="curve" smooth="yes"/>
      <point x="440" y="450" type="line" smooth="yes"/>
      <point x="483" y="450"/>
      <point x="493" y="458"/>
    </contour>
  </outline>
</glyph>
<glyph name="thorn" format="1">
  <advance width="709"/>
  <unicode hex="00FE"/>
  <outline>
    <contour>
      <point x="121" y="-469" type="curve" smooth="yes"/>
      <point x="178" y="-469" type="line" smooth="yes"/>
      <point x="193" y="-469"/>
      <point x="201" y="-443"/>
      <point x="201" y="-400" type="curve" smooth="yes"/>
      <point x="201" y="166" type="line"/>
      <point x="245" y="39"/>
      <point x="318" y="-12"/>
      <point x="386" y="-12" type="curve" smooth="yes"/>
      <point x="501" y="-12"/>
      <point x="632" y="112"/>
      <point x="632" y="503" type="curve" smooth="yes"/>
      <point x="632" y="907"/>
      <point x="519" y="1019"/>
      <point x="398" y="1019" type="curve" smooth="yes"/>
      <point x="324" y="1019"/>
      <point x="248" y="961"/>
      <point x="207" y="839" type="curve" smooth="yes"/>
      <point x="207" y="838"/>
      <point x="205" y="834"/>
      <point x="204" y="834" type="curve" smooth="yes"/>
      <point x="203" y="834"/>
      <point x="201" y="836"/>
      <point x="201" y="845" type="curve" smooth="yes"/>
      <point x="201" y="1366" type="line" smooth="yes"/>
      <point x="201" y="1409"/>
      <point x="193" y="1435"/>
      <point x="178" y="1435" type="curve" smooth="yes"/>
      <point x="121" y="1435" type="line" smooth="yes"/>
      <point x="107" y="1435"/>
      <point x="98" y="1409"/>
      <point x="98" y="1366" type="curve" smooth="yes"/>
      <point x="98" y="-400" type="line" smooth="yes"/>
      <point x="98" y="-443"/>
      <point x="107" y="-469"/>
    </contour>
    <contour>
      <point x="367" y="73" type="curve" smooth="yes"/>
      <point x="274" y="73"/>
      <point x="201" y="261"/>
      <point x="201" y="506" type="curve" smooth="yes"/>
      <point x="201" y="769"/>
      <point x="287" y="934"/>
      <point x="374" y="934" type="curve" smooth="yes"/>
      <point x="460" y="934"/>
      <point x="527" y="819"/>
      <point x="527" y="506" type="curve" smooth="yes"/>
      <point x="527" y="189"/>
      <point x="457" y="73"/>
    </contour>
  </outline>
</glyph>
<glyph name="Dcroat" format="1">
  <advance width="899"/>
  <unicode hex="0110"/>
  <outline>
    <contour>
      <point x="234" y="90" type="line" smooth="yes"/>
      <point x="226" y="90"/>
      <point x="222" y="95"/>
      <point x="222" y="110" type="curve" smooth="yes"/>
      <point x="222" y="692" type="line"/>
      <point x="418" y="692" type="line" smooth="yes"/>
      <point x="434" y="692"/>
      <point x="445" y="695"/>
      <point x="445" y="722" type="curve" smooth="yes"/>
      <point x="445" y="737" type="line" smooth="yes"/>
      <point x="445" y="762"/>
      <point x="434" y="766"/>
      <point x="418" y="766" type="curve" smooth="yes"/>
      <point x="222" y="766" type="line"/>
      <point x="222" y="1331" type="line" smooth="yes"/>
      <point x="222" y="1343"/>
      <point x="227" y="1348"/>
      <point x="233" y="1348" type="curve" smooth="yes"/>
      <point x="426" y="1348" type="line" smooth="yes"/>
      <point x="626" y="1348"/>
      <point x="697" y="1162"/>
      <point x="697" y="723" type="curve" smooth="yes"/>
      <point x="697" y="235"/>
      <point x="642" y="90"/>
      <point x="423" y="90" type="curve" smooth="yes"/>
    </contour>
    <contour>
      <point x="131" y="0" type="curve" smooth="yes"/>
      <point x="426" y="0" type="line" smooth="yes"/>
      <point x="699" y="0"/>
      <point x="812" y="116"/>
      <point x="812" y="723" type="curve" smooth="yes"/>
      <point x="812" y="1287"/>
      <point x="671" y="1438"/>
      <point x="434" y="1438" type="curve" smooth="yes"/>
      <point x="131" y="1438" type="line" smooth="yes"/>
      <point x="116" y="1438"/>
      <point x="108" y="1434"/>
      <point x="108" y="1407" type="curve" smooth="yes"/>
      <point x="108" y="766" type="line"/>
      <point x="39" y="766" type="line" smooth="yes"/>
      <point x="22" y="766"/>
      <point x="12" y="762"/>
      <point x="12" y="735" type="curve" smooth="yes"/>
      <point x="12" y="721" type="line" smooth="yes"/>
      <point x="12" y="695"/>
      <point x="22" y="692"/>
      <point x="39" y="692" type="curve" smooth="yes"/>
      <point x="108" y="692" type="line"/>
      <point x="108" y="39" type="line" smooth="yes"/>
      <point x="108" y="4"/>
      <point x="116" y="0"/>
    </contour>
  </outline>
</glyph>
<glyph name="Hbar" format="1">
  <advance width="881"/>
  <unicode hex="0126"/>
  <outline>
    <contour>
      <point x="132" y="0" type="curve" smooth="yes"/>
      <point x="197" y="0" type="line" smooth="yes"/>
      <point x="213" y="0"/>
      <point x="223" y="4"/>
      <point x="223" y="47" type="curve" smooth="yes"/>
      <point x="223" y="674" type="line" smooth="yes"/>
      <point x="223" y="678"/>
      <point x="228" y="691"/>
      <point x="229" y="691" type="curve" smooth="yes"/>
      <point x="650" y="691" type="line" smooth="yes"/>
      <point x="651" y="691"/>
      <point x="658" y="676"/>
      <point x="658" y="672" type="curve" smooth="yes"/>
      <point x="658" y="47" type="line" smooth="yes"/>
      <point x="658" y="4"/>
      <point x="668" y="0"/>
      <point x="685" y="0" type="curve" smooth="yes"/>
      <point x="751" y="0" type="line" smooth="yes"/>
      <point x="765" y="0"/>
      <point x="774" y="4"/>
      <point x="774" y="47" type="curve" smooth="yes"/>
      <point x="774" y="1186" type="line"/>
      <point x="836" y="1186" type="line" smooth="yes"/>
      <point x="852" y="1186"/>
      <point x="862" y="1189"/>
      <point x="862" y="1216" type="curve" smooth="yes"/>
      <point x="862" y="1231" type="line" smooth="yes"/>
      <point x="862" y="1256"/>
      <point x="852" y="1260"/>
      <point x="836" y="1260" type="curve" smooth="yes"/>
      <point x="774" y="1260" type="line"/>
      <point x="774" y="1391" type="line" smooth="yes"/>
      <point x="774" y="1434"/>
      <point x="765" y="1438"/>
      <point x="751" y="1438" type="curve" smooth="yes"/>
      <point x="685" y="1438" type="line" smooth="yes"/>
      <point x="668" y="1438"/>
      <point x="658" y="1434"/>
      <point x="658" y="1391" type="curve" smooth="yes"/>
      <point x="658" y="1260" type="line"/>
      <point x="222" y="1260" type="line"/>
      <point x="222" y="1391" type="line" smooth="yes"/>
      <point x="222" y="1434"/>
      <point x="212" y="1438"/>
      <point x="196" y="1438" type="curve" smooth="yes"/>
      <point x="132" y="1438" type="line" smooth="yes"/>
      <point x="116" y="1438"/>
      <point x="108" y="1434"/>
      <point x="108" y="1391" type="curve" smooth="yes"/>
      <point x="108" y="1260" type="line"/>
      <point x="45" y="1260" type="line" smooth="yes"/>
      <point x="29" y="1260"/>
      <point x="18" y="1256"/>
      <point x="18" y="1229" type="curve" smooth="yes"/>
      <point x="18" y="1215" type="line" smooth="yes"/>
      <point x="18" y="1189"/>
      <point x="29" y="1186"/>
      <point x="45" y="1186" type="curve" smooth="yes"/>
      <point x="108" y="1186" type="line"/>
      <point x="108" y="47" type="line" smooth="yes"/>
      <point x="108" y="4"/>
      <point x="116" y="0"/>
    </contour>
    <contour>
      <point x="228" y="787" type="line" smooth="yes"/>
      <point x="227" y="787"/>
      <point x="222" y="800"/>
      <point x="222" y="804" type="curve" smooth="yes"/>
      <point x="222" y="1186" type="line"/>
      <point x="658" y="1186" type="line"/>
      <point x="658" y="807" type="line" smooth="yes"/>
      <point x="658" y="803"/>
      <point x="651" y="787"/>
      <point x="649" y="787" type="curve" smooth="yes"/>
    </contour>
  </outline>
</glyph>
<glyph name="florin" format="1">
  <advance width="447"/>
  <unicode hex="0192"/>
  <outline>
    <contour>
      <point x="-13" y="-106" type="line" smooth="yes"/>
      <point x="138" y="-106"/>
      <point x="196" y="-23"/>
      <point x="226" y="291" type="curve" smooth="yes"/>
      <point x="270" y="751" type="line" smooth="yes"/>
      <point x="271" y="771"/>
      <point x="274" y="776"/>
      <point x="281" y="776" type="curve" smooth="yes"/>
      <point x="383" y="776" type="line" smooth="yes"/>
      <point x="397" y="776"/>
      <point x="406" y="780"/>
      <point x="408" y="804" type="curve" smooth="yes"/>
      <point x="412" y="844" type="line" smooth="yes"/>
      <point x="415" y="866"/>
      <point x="408" y="870"/>
      <point x="394" y="870" type="curve" smooth="yes"/>
      <point x="284" y="870" type="line" smooth="yes"/>
      <point x="283" y="870"/>
      <point x="281" y="873"/>
      <point x="281" y="876" type="curve" smooth="yes"/>
      <point x="292" y="979" type="line" smooth="yes"/>
      <point x="313" y="1182"/>
      <point x="336" y="1229"/>
      <point x="426" y="1229" type="curve" smooth="yes"/>
      <point x="447" y="1229" type="line" smooth="yes"/>
      <point x="461" y="1229"/>
      <point x="465" y="1254"/>
      <point x="465" y="1283" type="curve" smooth="yes"/>
      <point x="465" y="1298"/>
      <point x="459" y="1312"/>
      <point x="453" y="1312" type="curve"/>
      <point x="454" y="1315"/>
      <point x="434" y="1319"/>
      <point x="420" y="1319" type="curve" smooth="yes"/>
      <point x="269" y="1319"/>
      <point x="216" y="1245"/>
      <point x="183" y="922" type="curve" smooth="yes"/>
      <point x="181" y="900"/>
      <point x="177" y="870"/>
      <point x="170" y="870" type="curve" smooth="yes"/>
      <point x="90" y="870" type="line" smooth="yes"/>
      <point x="75" y="870"/>
      <point x="65" y="865"/>
      <point x="62" y="841" type="curve"/>
      <point x="59" y="804" type="line" smooth="yes"/>
      <point x="56" y="779"/>
      <point x="64" y="776"/>
      <point x="79" y="776" type="curve" smooth="yes"/>
      <point x="159" y="776" type="line" smooth="yes"/>
      <point x="167" y="776"/>
      <point x="166" y="771"/>
      <point x="165" y="751" type="curve" smooth="yes"/>
      <point x="115" y="234" type="line" smooth="yes"/>
      <point x="95" y="28"/>
      <point x="72" y="-17"/>
      <point x="-19" y="-17" type="curve" smooth="yes"/>
      <point x="-30" y="-17" type="line" smooth="yes"/>
      <point x="-45" y="-17"/>
      <point x="-46" y="-41"/>
      <point x="-47" y="-71" type="curve" smooth="yes"/>
      <point x="-47" y="-82"/>
      <point x="-45" y="-97"/>
      <point x="-41" y="-97" type="curve"/>
      <point x="-40" y="-105"/>
      <point x="-32" y="-106"/>
      <point x="-23" y="-106" type="curve" smooth="yes"/>
    </contour>
  </outline>
</glyph>
<glyph name="ogonek" format="1">
  <advance width="716"/>
  <unicode hex="02DB"/>
  <outline>
    <contour>
      <point x="479" y="-329" type="curve" smooth="yes"/>
      <point x="492" y="-329"/>
      <point x="495" y="-322"/>
      <point x="495" y="-312" type="curve" smooth="yes"/>
      <point x="495" y="-265" type="line" smooth="yes"/>
      <point x="495" y="-254"/>
      <point x="475" y="-255"/>
      <point x="475" y="-255" type="curve"/>
      <point x="375" y="-255"/>
      <point x="337" y="-200"/>
      <point x="337" y="-139" type="curve" smooth="yes"/>
      <point x="337" y="-81"/>
      <point x="371" y="-30"/>
      <point x="430" y="-6" type="curve"/>
      <point x="430" y="22" type="line"/>
      <point x="309" y="-2"/>
      <point x="237" y="-78"/>
      <point x="237" y="-170" type="curve" smooth="yes"/>
      <point x="237" y="-247"/>
      <point x="303" y="-322"/>
      <point x="445" y="-328" type="curve" smooth="yes"/>
      <point x="451" y="-328"/>
      <point x="472" y="-329"/>
    </contour>
  </outline>
</glyph>
<glyph name="tilde" format="1">
  <advance width="476"/>
  <unicode hex="02DC"/>
  <outline>
    <contour>
      <point x="419" y="825" type="curve" smooth="yes"/>
      <point x="434" y="825"/>
      <point x="444" y="837"/>
      <point x="444" y="854" type="curve" smooth="yes"/>
      <point x="444" y="862"/>
      <point x="441" y="872"/>
      <point x="435" y="881" type="curve" smooth="yes"/>
      <point x="409" y="929"/>
      <point x="379" y="970"/>
      <point x="329" y="970" type="curve" smooth="yes"/>
      <point x="261" y="970"/>
      <point x="193" y="897"/>
      <point x="143" y="897" type="curve" smooth="yes"/>
      <point x="123" y="897"/>
      <point x="103" y="912"/>
      <point x="89" y="949" type="curve"/>
      <point x="83" y="962"/>
      <point x="73" y="972"/>
      <point x="60" y="972" type="curve" smooth="yes"/>
      <point x="43" y="972"/>
      <point x="32" y="957"/>
      <point x="32" y="938" type="curve" smooth="yes"/>
      <point x="32" y="932"/>
      <point x="34" y="923"/>
      <point x="39" y="915" type="curve"/>
      <point x="55" y="881"/>
      <point x="82" y="828"/>
      <point x="152" y="828" type="curve" smooth="yes"/>
      <point x="224" y="828"/>
      <point x="294" y="901"/>
      <point x="337" y="901" type="curve" smooth="yes"/>
      <point x="360" y="901"/>
      <point x="373" y="874"/>
      <point x="391" y="846" type="curve" smooth="yes"/>
      <point x="399" y="834"/>
      <point x="405" y="825"/>
    </contour>
  </outline>
</glyph>
<glyph name="uni030F" format="1">
  <advance width="595"/>
  <unicode hex="030F"/>
  <outline>
    <contour>
      <point x="207" y="1167" type="curve" smooth="yes"/>
      <point x="220" y="1167" type="line" smooth="yes"/>
      <point x="227" y="1167"/>
      <point x="230" y="1175"/>
      <point x="230" y="1190" type="curve" smooth="yes"/>
      <point x="230" y="1203"/>
      <point x="228" y="1220"/>
      <point x="227" y="1234" type="curve" smooth="yes"/>
      <point x="206" y="1484" type="line" smooth="yes"/>
      <point x="203" y="1527"/>
      <point x="189" y="1539"/>
      <point x="172" y="1539" type="curve" smooth="yes"/>
      <point x="125" y="1539" type="line" smooth="yes"/>
      <point x="115" y="1539"/>
      <point x="106" y="1527"/>
      <point x="106" y="1506" type="curve" smooth="yes"/>
      <point x="106" y="1497"/>
      <point x="108" y="1486"/>
      <point x="111" y="1474" type="curve" smooth="yes"/>
      <point x="182" y="1206" type="line"/>
      <point x="190" y="1184"/>
      <point x="192" y="1167"/>
    </contour>
    <contour>
      <point x="403" y="1167" type="curve" smooth="yes"/>
      <point x="416" y="1167" type="line" smooth="yes"/>
      <point x="425" y="1167"/>
      <point x="428" y="1175"/>
      <point x="428" y="1190" type="curve" smooth="yes"/>
      <point x="428" y="1203"/>
      <point x="426" y="1220"/>
      <point x="425" y="1234" type="curve" smooth="yes"/>
      <point x="404" y="1484" type="line"/>
      <point x="402" y="1527"/>
      <point x="387" y="1539"/>
      <point x="371" y="1539" type="curve" smooth="yes"/>
      <point x="324" y="1539" type="line" smooth="yes"/>
      <point x="313" y="1539"/>
      <point x="305" y="1527"/>
      <point x="305" y="1506" type="curve" smooth="yes"/>
      <point x="305" y="1497"/>
      <point x="307" y="1486"/>
      <point x="310" y="1474" type="curve" smooth="yes"/>
      <point x="380" y="1206" type="line" smooth="yes"/>
      <point x="386" y="1183"/>
      <point x="389" y="1167"/>
    </contour>
  </outline>
</glyph>
<glyph name="uni0311" format="1">
  <advance width="1277"/>
  <unicode hex="0311"/>
  <outline>
    <contour>
      <point x="428" y="1294" type="curve"/>
      <point x="495" y="1294" type="line"/>
      <point x="495" y="1359"/>
      <point x="549" y="1389"/>
      <point x="604" y="1389" type="curve" smooth="yes"/>
      <point x="657" y="1389"/>
      <point x="711" y="1360"/>
      <point x="711" y="1294" type="curve"/>
      <point x="779" y="1294" type="line"/>
      <point x="779" y="1413"/>
      <point x="692" y="1468"/>
      <point x="605" y="1468" type="curve" smooth="yes"/>
      <point x="516" y="1468"/>
      <point x="428" y="1412"/>
    </contour>
  </outline>
</glyph>
<glyph name="Delta" format="1">
  <advance width="764"/>
  <unicode hex="0394"/>
  <outline>
    <contour>
      <point x="128" y="244" type="curve" smooth="yes"/>
      <point x="643" y="244" type="line" smooth="yes"/>
      <point x="653" y="244"/>
      <point x="659" y="253"/>
      <point x="659" y="274" type="curve" smooth="yes"/>
      <point x="659" y="283"/>
      <point x="654" y="287"/>
      <point x="653" y="300" type="curve"/>
      <point x="469" y="1295" type="line" smooth="yes"/>
      <point x="461" y="1336"/>
      <point x="449" y="1348"/>
      <point x="433" y="1350" type="curve"/>
      <point x="343" y="1350" type="line"/>
      <point x="327" y="1348"/>
      <point x="314" y="1336"/>
      <point x="307" y="1295" type="curve" smooth="yes"/>
      <point x="114" y="300" type="line" smooth="yes"/>
      <point x="113" y="294"/>
      <point x="113" y="290"/>
      <point x="113" y="286" type="curve" smooth="yes"/>
      <point x="113" y="275" type="line" smooth="yes"/>
      <point x="113" y="253"/>
      <point x="119" y="244"/>
    </contour>
    <contour>
      <point x="252" y="339" type="line" smooth="yes"/>
      <point x="244" y="339"/>
      <point x="241" y="346"/>
      <point x="241" y="350" type="curve" smooth="yes"/>
      <point x="241" y="351"/>
      <point x="241" y="354"/>
      <point x="242" y="359" type="curve" smooth="yes"/>
      <point x="385" y="1208" type="line" smooth="yes"/>
      <point x="385" y="1209"/>
      <point x="386" y="1212"/>
      <point x="388" y="1212" type="curve"/>
      <point x="388" y="1212"/>
      <point x="388" y="1210"/>
      <point x="389" y="1208" type="curve" smooth="yes"/>
      <point x="523" y="354" type="line" smooth="yes"/>
      <point x="524" y="353"/>
      <point x="524" y="350"/>
      <point x="524" y="348" type="curve" smooth="yes"/>
      <point x="524" y="344"/>
      <point x="524" y="339"/>
      <point x="521" y="339" type="curve" smooth="yes"/>
    </contour>
  </outline>
</glyph>
<glyph name="endash" format="1">
  <advance width="1024"/>
  <unicode hex="2013"/>
  <outline>
    <contour>
      <point x="115" y="633" type="curve" smooth="yes"/>
      <point x="906" y="633" type="line" smooth="yes"/>
      <point x="925" y="633"/>
      <point x="939" y="642"/>
      <point x="939" y="672" type="curve" smooth="yes"/>
      <point x="939" y="694" type="line" smooth="yes"/>
      <point x="939" y="723"/>
      <point x="925" y="732"/>
      <point x="906" y="732" type="curve" smooth="yes"/>
      <point x="115" y="732" type="line" smooth="yes"/>
      <point x="96" y="732"/>
      <point x="82" y="723"/>
      <point x="82" y="693" type="curve" smooth="yes"/>
      <point x="82" y="670" type="line" smooth="yes"/>
      <point x="82" y="642"/>
      <point x="96" y="633"/>
    </contour>
  </outline>
</glyph>
<glyph name="quotedblleft" format="1">
  <advance width="530"/>
  <unicode hex="201C"/>
  <outline>
    <contour>
      <point x="115" y="895" type="curve" smooth="yes"/>
      <point x="198" y="895" type="line" smooth="yes"/>
      <point x="212" y="895"/>
      <point x="219" y="914"/>
      <point x="219" y="957" type="curve" smooth="yes"/>
      <point x="219" y="1157" type="line" smooth="yes"/>
      <point x="219" y="1195"/>
      <point x="211" y="1209"/>
      <point x="198" y="1209" type="curve" smooth="yes"/>
      <point x="165" y="1209" type="line" smooth="yes"/>
      <point x="160" y="1209"/>
      <point x="159" y="1220"/>
      <point x="159" y="1236" type="curve" smooth="yes"/>
      <point x="159" y="1268"/>
      <point x="172" y="1344"/>
      <point x="197" y="1386" type="curve"/>
      <point x="214" y="1412"/>
      <point x="219" y="1407"/>
      <point x="219" y="1461" type="curve" smooth="yes"/>
      <point x="219" y="1473" type="line" smooth="yes"/>
      <point x="219" y="1504"/>
      <point x="210" y="1519"/>
      <point x="200" y="1519" type="curve" smooth="yes"/>
      <point x="198" y="1519"/>
      <point x="197" y="1519"/>
      <point x="195" y="1518" type="curve" smooth="yes"/>
      <point x="148" y="1495"/>
      <point x="88" y="1365"/>
      <point x="88" y="1128" type="curve" smooth="yes"/>
      <point x="88" y="968" type="line" smooth="yes"/>
      <point x="88" y="925"/>
      <point x="99" y="895"/>
    </contour>
    <contour>
      <point x="340" y="895" type="curve" smooth="yes"/>
      <point x="423" y="895" type="line" smooth="yes"/>
      <point x="437" y="895"/>
      <point x="444" y="914"/>
      <point x="444" y="957" type="curve" smooth="yes"/>
      <point x="444" y="1157" type="line" smooth="yes"/>
      <point x="444" y="1195"/>
      <point x="436" y="1209"/>
      <point x="423" y="1209" type="curve" smooth="yes"/>
      <point x="390" y="1209" type="line" smooth="yes"/>
      <point x="385" y="1209"/>
      <point x="384" y="1220"/>
      <point x="384" y="1236" type="curve" smooth="yes"/>
      <point x="384" y="1268"/>
      <point x="397" y="1344"/>
      <point x="422" y="1386" type="curve"/>
      <point x="439" y="1412"/>
      <point x="444" y="1407"/>
      <point x="444" y="1461" type="curve" smooth="yes"/>
      <point x="444" y="1473" type="line" smooth="yes"/>
      <point x="444" y="1504"/>
      <point x="435" y="1519"/>
      <point x="425" y="1519" type="curve" smooth="yes"/>
      <point x="423" y="1519"/>
      <point x="422" y="1519"/>
      <point x="420" y="1518" type="curve" smooth="yes"/>
      <point x="373" y="1495"/>
      <point x="313" y="1365"/>
      <point x="313" y="1128" type="curve" smooth="yes"/>
      <point x="313" y="968" type="line" smooth="yes"/>
      <point x="313" y="925"/>
      <point x="324" y="895"/>
    </contour>
  </outline>
</glyph>
<glyph name="quotedblright" format="1">
  <advance width="531"/>
  <unicode hex="201D"/>
  <outline>
    <contour>
      <point x="114" y="897" type="curve" smooth="yes"/>
      <point x="162" y="920"/>
      <point x="222" y="1050"/>
      <point x="222" y="1287" type="curve" smooth="yes"/>
      <point x="222" y="1447" type="line" smooth="yes"/>
      <point x="222" y="1490"/>
      <point x="210" y="1520"/>
      <point x="195" y="1520" type="curve" smooth="yes"/>
      <point x="112" y="1520" type="line" smooth="yes"/>
      <point x="97" y="1520"/>
      <point x="91" y="1500"/>
      <point x="91" y="1457" type="curve" smooth="yes"/>
      <point x="91" y="1258" type="line" smooth="yes"/>
      <point x="91" y="1220"/>
      <point x="99" y="1206"/>
      <point x="112" y="1206" type="curve" smooth="yes"/>
      <point x="145" y="1206" type="line" smooth="yes"/>
      <point x="151" y="1206"/>
      <point x="151" y="1195"/>
      <point x="151" y="1179" type="curve" smooth="yes"/>
      <point x="151" y="1147"/>
      <point x="138" y="1070"/>
      <point x="113" y="1029" type="curve" smooth="yes"/>
      <point x="96" y="1003"/>
      <point x="91" y="1008"/>
      <point x="91" y="954" type="curve" smooth="yes"/>
      <point x="91" y="942" type="line" smooth="yes"/>
      <point x="91" y="911"/>
      <point x="99" y="896"/>
      <point x="109" y="896" type="curve" smooth="yes"/>
      <point x="111" y="896"/>
      <point x="112" y="896"/>
    </contour>
    <contour>
      <point x="332" y="897" type="curve" smooth="yes"/>
      <point x="380" y="920"/>
      <point x="440" y="1050"/>
      <point x="440" y="1287" type="curve" smooth="yes"/>
      <point x="440" y="1447" type="line" smooth="yes"/>
      <point x="440" y="1490"/>
      <point x="428" y="1520"/>
      <point x="414" y="1520" type="curve" smooth="yes"/>
      <point x="330" y="1520" type="line" smooth="yes"/>
      <point x="315" y="1520"/>
      <point x="309" y="1500"/>
      <point x="309" y="1457" type="curve" smooth="yes"/>
      <point x="309" y="1258" type="line" smooth="yes"/>
      <point x="309" y="1220"/>
      <point x="317" y="1206"/>
      <point x="330" y="1206" type="curve" smooth="yes"/>
      <point x="363" y="1206" type="line" smooth="yes"/>
      <point x="369" y="1206"/>
      <point x="369" y="1195"/>
      <point x="369" y="1179" type="curve" smooth="yes"/>
      <point x="369" y="1147"/>
      <point x="356" y="1070"/>
      <point x="331" y="1029" type="curve" smooth="yes"/>
      <point x="315" y="1003"/>
      <point x="309" y="1008"/>
      <point x="309" y="954" type="curve" smooth="yes"/>
      <point x="309" y="942" type="line" smooth="yes"/>
      <point x="309" y="911"/>
      <point x="317" y="896"/>
      <point x="327" y="896" type="curve" smooth="yes"/>
      <point x="329" y="896"/>
      <point x="330" y="896"/>
    </contour>
  </outline>
</glyph>
<glyph name="daggerdbl" format="1">
  <advance width="672"/>
  <unicode hex="2021"/>
  <outline>
    <contour>
      <point x="316" y="0" type="curve" smooth="yes"/>
      <point x="372" y="0" type="line" smooth="yes"/>
      <point x="387" y="0"/>
      <point x="396" y="20"/>
      <point x="396" y="63" type="curve" smooth="yes"/>
      <point x="396" y="414" type="line"/>
      <point x="630" y="414" type="line" smooth="yes"/>
      <point x="673" y="414"/>
      <point x="686" y="423"/>
      <point x="686" y="437" type="curve" smooth="yes"/>
      <point x="686" y="493" type="line" smooth="yes"/>
      <point x="686" y="508"/>
      <point x="673" y="518"/>
      <point x="630" y="518" type="curve" smooth="yes"/>
      <point x="396" y="518" type="line"/>
      <point x="396" y="971" type="line"/>
      <point x="630" y="971" type="line" smooth="yes"/>
      <point x="673" y="971"/>
      <point x="686" y="980"/>
      <point x="686" y="994" type="curve" smooth="yes"/>
      <point x="686" y="1050" type="line" smooth="yes"/>
      <point x="686" y="1065"/>
      <point x="673" y="1075"/>
      <point x="630" y="1075" type="curve" smooth="yes"/>
      <point x="396" y="1075" type="line"/>
      <point x="396" y="1380" type="line" smooth="yes"/>
      <point x="396" y="1423"/>
      <point x="387" y="1445"/>
      <point x="372" y="1445" type="curve" smooth="yes"/>
      <point x="316" y="1445" type="line" smooth="yes"/>
      <point x="302" y="1445"/>
      <point x="293" y="1423"/>
      <point x="293" y="1380" type="curve" smooth="yes"/>
      <point x="293" y="1075" type="line"/>
      <point x="42" y="1075" type="line" smooth="yes"/>
      <point x="-1" y="1075"/>
      <point x="-14" y="1065"/>
      <point x="-14" y="1050" type="curve" smooth="yes"/>
      <point x="-14" y="994" type="line" smooth="yes"/>
      <point x="-14" y="980"/>
      <point x="-1" y="971"/>
      <point x="42" y="971" type="curve" smooth="yes"/>
      <point x="293" y="971" type="line"/>
      <point x="293" y="518" type="line"/>
      <point x="42" y="518" type="line" smooth="yes"/>
      <point x="-1" y="518"/>
      <point x="-14" y="508"/>
      <point x="-14" y="493" type="curve" smooth="yes"/>
      <point x="-14" y="437" type="line" smooth="yes"/>
      <point x="-14" y="423"/>
      <point x="-1" y="414"/>
      <point x="42" y="414" type="curve" smooth="yes"/>
      <point x="293" y="414" type="line"/>
      <point x="293" y="63" type="line" smooth="yes"/>
      <point x="293" y="20"/>
      <point x="302" y="0"/>
    </contour>
  </outline>
</glyph>
<glyph name="trademark" format="1">
  <advance width="1276"/>
  <unicode hex="2122"/>
  <outline>
    <contour>
      <point x="577" y="431" type="curve" smooth="yes"/>
      <point x="623" y="431" type="line" smooth="yes"/>
      <point x="633" y="431"/>
      <point x="637" y="445"/>
      <point x="638" y="475" type="curve" smooth="yes"/>
      <point x="662" y="1234" type="line" smooth="yes"/>
      <point x="662" y="1235"/>
      <point x="665" y="1238"/>
      <point x="665" y="1238" type="curve"/>
      <point x="818" y="473" type="line" smooth="yes"/>
      <point x="824" y="445"/>
      <point x="833" y="431"/>
      <point x="843" y="431" type="curve" smooth="yes"/>
      <point x="871" y="431" type="line" smooth="yes"/>
      <point x="881" y="431"/>
      <point x="891" y="445"/>
      <point x="897" y="473" type="curve" smooth="yes"/>
      <point x="1053" y="1245" type="line" smooth="yes"/>
      <point x="1053" y="1246"/>
      <point x="1057" y="1244"/>
      <point x="1057" y="1243" type="curve" smooth="yes"/>
      <point x="1080" y="475" type="line" smooth="yes"/>
      <point x="1081" y="445"/>
      <point x="1087" y="431"/>
      <point x="1097" y="431" type="curve" smooth="yes"/>
      <point x="1143" y="431" type="line" smooth="yes"/>
      <point x="1152" y="431"/>
      <point x="1158" y="443"/>
      <point x="1158" y="469" type="curve" smooth="yes"/>
      <point x="1158" y="475" type="line" smooth="yes"/>
      <point x="1118" y="1392" type="line" smooth="yes"/>
      <point x="1117" y="1421"/>
      <point x="1113" y="1436"/>
      <point x="1103" y="1437" type="curve"/>
      <point x="1039" y="1437" type="line"/>
      <point x="1029" y="1436"/>
      <point x="1018" y="1423"/>
      <point x="1012" y="1394" type="curve" smooth="yes"/>
      <point x="861" y="628" type="line" smooth="yes"/>
      <point x="861" y="626"/>
      <point x="855" y="626"/>
      <point x="854" y="628" type="curve" smooth="yes"/>
      <point x="702" y="1400" type="line"/>
      <point x="695" y="1429"/>
      <point x="682" y="1436"/>
      <point x="672" y="1437" type="curve"/>
      <point x="616" y="1437" type="line"/>
      <point x="606" y="1436"/>
      <point x="601" y="1421"/>
      <point x="600" y="1392" type="curve" smooth="yes"/>
      <point x="561" y="475" type="line" smooth="yes"/>
      <point x="560" y="445"/>
      <point x="567" y="431"/>
    </contour>
    <contour>
      <point x="270" y="431" type="curve" smooth="yes"/>
      <point x="316" y="431" type="line" smooth="yes"/>
      <point x="326" y="431"/>
      <point x="332" y="434"/>
      <point x="332" y="464" type="curve" smooth="yes"/>
      <point x="332" y="1353" type="line" smooth="yes"/>
      <point x="332" y="1367"/>
      <point x="334" y="1370"/>
      <point x="339" y="1370" type="curve" smooth="yes"/>
      <point x="464" y="1370" type="line" smooth="yes"/>
      <point x="474" y="1370"/>
      <point x="480" y="1370"/>
      <point x="480" y="1392" type="curve" smooth="yes"/>
      <point x="480" y="1412" type="line" smooth="yes"/>
      <point x="480" y="1437"/>
      <point x="474" y="1438"/>
      <point x="464" y="1438" type="curve" smooth="yes"/>
      <point x="120" y="1438" type="line" smooth="yes"/>
      <point x="110" y="1438"/>
      <point x="103" y="1437"/>
      <point x="103" y="1412" type="curve" smooth="yes"/>
      <point x="103" y="1392" type="line" smooth="yes"/>
      <point x="103" y="1370"/>
      <point x="110" y="1370"/>
      <point x="120" y="1370" type="curve" smooth="yes"/>
      <point x="247" y="1370" type="line" smooth="yes"/>
      <point x="252" y="1370"/>
      <point x="254" y="1367"/>
      <point x="254" y="1353" type="curve" smooth="yes"/>
      <point x="254" y="464" type="line" smooth="yes"/>
      <point x="254" y="434"/>
      <point x="260" y="431"/>
    </contour>
  </outline>
</glyph>
<glyph name="product" format="1">
  <advance width="881"/>
  <unicode hex="220F"/>
  <outline>
    <contour>
      <point x="132" y="0" type="curve" smooth="yes"/>
      <point x="197" y="0" type="line" smooth="yes"/>
      <point x="213" y="0"/>
      <point x="223" y="4"/>
      <point x="223" y="47" type="curve" smooth="yes"/>
      <point x="223" y="1325" type="line" smooth="yes"/>
      <point x="223" y="1336"/>
      <point x="226" y="1342"/>
      <point x="229" y="1342" type="curve" smooth="yes"/>
      <point x="650" y="1342" type="line" smooth="yes"/>
      <point x="654" y="1342"/>
      <point x="658" y="1335"/>
      <point x="658" y="1323" type="curve" smooth="yes"/>
      <point x="658" y="47" type="line" smooth="yes"/>
      <point x="658" y="4"/>
      <point x="668" y="0"/>
      <point x="685" y="0" type="curve" smooth="yes"/>
      <point x="751" y="0" type="line" smooth="yes"/>
      <point x="765" y="0"/>
      <point x="774" y="4"/>
      <point x="774" y="47" type="curve" smooth="yes"/>
      <point x="774" y="1391" type="line" smooth="yes"/>
      <point x="774" y="1434"/>
      <point x="765" y="1438"/>
      <point x="751" y="1438" type="curve" smooth="yes"/>
      <point x="132" y="1438" type="line" smooth="yes"/>
      <point x="116" y="1438"/>
      <point x="108" y="1434"/>
      <point x="108" y="1391" type="curve" smooth="yes"/>
      <point x="108" y="47" type="line" smooth="yes"/>
      <point x="108" y="4"/>
      <point x="116" y="0"/>
    </contour>
  </outline>
</glyph>
<glyph name="integral" format="1">
  <advance width="447"/>
  <unicode hex="222B"/>
  <outline>
    <contour>
      <point x="-30" y="-17" type="line" smooth="yes"/>
      <point x="-47" y="-17"/>
      <point x="-49" y="-64"/>
      <point x="-49" y="-85" type="curve" smooth="yes"/>
      <point x="-49" y="-104"/>
      <point x="-41" y="-106"/>
      <point x="-30" y="-106" type="curve" smooth="yes"/>
      <point x="-13" y="-106" type="line" smooth="yes"/>
      <point x="138" y="-106"/>
      <point x="196" y="-23"/>
      <point x="226" y="291" type="curve" smooth="yes"/>
      <point x="292" y="979" type="line" smooth="yes"/>
      <point x="312" y="1182"/>
      <point x="336" y="1229"/>
      <point x="426" y="1229" type="curve" smooth="yes"/>
      <point x="447" y="1229" type="line" smooth="yes"/>
      <point x="463" y="1229"/>
      <point x="467" y="1278"/>
      <point x="467" y="1299" type="curve" smooth="yes"/>
      <point x="467" y="1317"/>
      <point x="434" y="1319"/>
      <point x="420" y="1319" type="curve" smooth="yes"/>
      <point x="269" y="1319"/>
      <point x="215" y="1245"/>
      <point x="183" y="922" type="curve" smooth="yes"/>
      <point x="115" y="234" type="line" smooth="yes"/>
      <point x="95" y="28"/>
      <point x="72" y="-17"/>
      <point x="-19" y="-17" type="curve" smooth="yes"/>
    </contour>
  </outline>
</glyph>
<glyph name="lozenge" format="1">
  <advance width="764"/>
  <unicode hex="25CA"/>
  <outline>
    <contour>
      <point x="345" y="-48" type="curve"/>
      <point x="430" y="-48" type="line"/>
      <point x="446" y="-45"/>
      <point x="455" y="-33"/>
      <point x="466" y="8" type="curve" smooth="yes"/>
      <point x="648" y="691" type="line"/>
      <point x="648" y="697"/>
      <point x="650" y="701"/>
      <point x="650" y="706" type="curve" smooth="yes"/>
      <point x="650" y="709"/>
      <point x="649" y="712"/>
      <point x="648" y="716" type="curve" smooth="yes"/>
      <point x="466" y="1383" type="line" smooth="yes"/>
      <point x="455" y="1423"/>
      <point x="446" y="1436"/>
      <point x="430" y="1438" type="curve"/>
      <point x="345" y="1438" type="line"/>
      <point x="329" y="1436"/>
      <point x="320" y="1423"/>
      <point x="308" y="1383" type="curve" smooth="yes"/>
      <point x="118" y="716" type="line" smooth="yes"/>
      <point x="116" y="710"/>
      <point x="116" y="706"/>
      <point x="116" y="702" type="curve" smooth="yes"/>
      <point x="116" y="698"/>
      <point x="116" y="695"/>
      <point x="118" y="691" type="curve" smooth="yes"/>
      <point x="308" y="8" type="line" smooth="yes"/>
      <point x="319" y="-32"/>
      <point x="329" y="-45"/>
    </contour>
    <contour>
      <point x="387" y="91" type="curve"/>
      <point x="385" y="91"/>
      <point x="384" y="93"/>
      <point x="384" y="94" type="curve" smooth="yes"/>
      <point x="232" y="699" type="line"/>
      <point x="386" y="1296" type="line" smooth="yes"/>
      <point x="387" y="1297"/>
      <point x="387" y="1300"/>
      <point x="389" y="1300" type="curve"/>
      <point x="391" y="1296" type="line" smooth="yes"/>
      <point x="530" y="707" type="line"/>
      <point x="388" y="94" type="line" smooth="yes"/>
      <point x="388" y="92"/>
      <point x="387" y="91"/>
    </contour>
  </outline>
</glyph>
